<svg width="196.50394897460936px" height="120.8px" xmlns="http://www.w3.org/2000/svg" viewBox="151.74802551269534 14.600000000000001 196.50394897460936 120.8" style="background: none;" preserveAspectRatio="xMidYMid"><defs><linearGradient id="editing-gradient-gradient" x1="0" x2="1" y1="0.5" y2="0.5" gradientUnits="objectBoundingBox"><stop offset="0" stop-color="#689cc5"></stop><stop offset="1" stop-color="#5e6fa3"></stop></linearGradient></defs><g><g transform="translate(185.58328732848167, 102.8700008392334)"><path d="M14.34 0L0.38 0L8.51-42.24L22.59-42.24L14.34 0ZM52.10 1.28L52.10 1.28L52.10 1.28Q43.90 1.28 43.14-10.37L43.14-10.37L32.13-10.37L32.13-10.37Q30.85-7.42 29.95-4.86L29.95-4.86L28.29 0L19.33 0L39.49-42.24L53.25-42.24L55.94-11.14L55.94-11.14Q56.58-4.42 59.14-2.43L59.14-2.43L59.14-2.43Q57.28 1.28 52.10 1.28ZM37.63-23.17L34.11-15.04L42.94-15.04L42.18-31.49L42.18-33.22L37.63-23.17ZM63.10-15.62L63.10-15.62L63.10-15.62Q63.10-27.71 69.38-35.33L69.38-35.33L69.38-35.33Q76.03-43.58 87.62-43.58L87.62-43.58L87.62-43.58Q96-43.58 100.22-39.52L100.22-39.52L100.22-39.52Q104.45-35.46 104.45-26.88L104.45-26.88L104.45-26.88Q104.45-13.82 97.79-6.21L97.79-6.21L97.79-6.21Q91.20 1.28 80.13 1.28L80.13 1.28L80.13 1.28Q71.49 1.28 67.30-3.04L67.30-3.04L67.30-3.04Q63.10-7.36 63.10-15.62ZM79.94-28.86L79.94-28.86L79.94-28.86Q77.06-17.34 77.06-8.26L77.06-8.26L77.06-8.26Q77.06-6.08 77.79-4.67L77.79-4.67L77.79-4.67Q78.53-3.26 80.48-3.26L80.48-3.26L80.48-3.26Q82.43-3.26 83.65-4.19L83.65-4.19L83.65-4.19Q84.86-5.12 85.82-7.23L85.82-7.23L85.82-7.23Q87.36-10.69 88.80-18.02L88.80-18.02L88.80-18.02Q90.24-25.34 90.37-28.38L90.37-28.38L90.37-28.38Q90.50-31.42 90.50-33.73L90.50-33.73L90.50-33.73Q90.50-36.03 89.79-37.50L89.79-37.50L89.79-37.50Q89.09-38.98 87.20-38.98L87.20-38.98L87.20-38.98Q85.31-38.98 84.03-37.82L84.03-37.82L84.03-37.82Q81.66-35.65 79.94-28.86ZM99.52 8.83L99.52 8.83L99.52 8.83Q102.78 8.45 104.83 4.22L104.83 4.22L104.83 4.22Q106.94-0.06 108.86-9.92L108.86-9.92L115.07-42.24L128.96-42.24L122.75-9.92L122.75-9.92Q120.38 2.62 116.48 7.55L116.48 7.55L116.48 7.55Q114.43 10.11 111.84 11.14L111.84 11.14L111.84 11.14Q109.25 12.16 106.43 12.16L106.43 12.16L106.43 12.16Q103.62 12.16 101.79 11.14L101.79 11.14L101.79 11.14Q99.97 10.11 99.52 8.83Z" fill="url(#editing-gradient-gradient)"></path></g></g><style>text {
  font-size: 64px;
  font-family: Arial Black;
  dominant-baseline: central;
  text-anchor: middle;
}</style></svg>