<?xml version="1.0" encoding="utf-8"?>
<!-- Generator: Adobe Illustrator 26.0.0, SVG Export Plug-In . SVG Version: 6.00 Build 0)  -->
<svg version="1.1" id="Layer_1" xmlns="http://www.w3.org/2000/svg" xmlns:xlink="http://www.w3.org/1999/xlink" x="0px" y="0px"
	 viewBox="0 0 161 120.8" style="enable-background:new 0 0 161 120.8;" xml:space="preserve">
<style type="text/css">
	.st0{fill:url(#SVGID_1_);}
	.st1{fill:url(#SVGID_00000074431557710909868700000007142799953646212512_);}
	.st2{fill:url(#SVGID_00000148633373307006197630000010638405016600334258_);}
</style>
<linearGradient id="SVGID_1_" gradientUnits="userSpaceOnUse" x1="34.2153" y1="67.15" x2="56.4253" y2="67.15">
	<stop  offset="0" style="stop-color:#689CC5"/>
	<stop  offset="1" style="stop-color:#5E6FA3"/>
</linearGradient>
<polygon class="st0" points="48.2,88.3 34.2,88.3 42.3,46 56.4,46 "/>
<linearGradient id="SVGID_00000065058730859905493050000014480567183528030387_" gradientUnits="userSpaceOnUse" x1="53.1652" y1="67.79" x2="92.9753" y2="67.79">
	<stop  offset="0" style="stop-color:#689CC5"/>
	<stop  offset="1" style="stop-color:#5E6FA3"/>
</linearGradient>
<path style="fill:url(#SVGID_00000065058730859905493050000014480567183528030387_);" d="M89.8,77.1L87.1,46H73.3L53.2,88.3h9
	l1.7-4.9c0.6-1.7,1.3-3.5,2.2-5.5h11c0.5,7.8,3.5,11.7,9,11.7c3.5,0,5.8-1.2,7-3.7C91.3,84.5,90.2,81.6,89.8,77.1z M67.9,73.2
	l3.5-8.1l4.5-10v1.7l0.8,16.5H67.9z"/>
<linearGradient id="SVGID_00000124873747081984687140000008359279193532441494_" gradientUnits="userSpaceOnUse" x1="-45.3732" y1="203.2608" x2="-45.1443" y2="203.2608" gradientTransform="matrix(128.58 0 0 -55.74 5927.0635 11402.9902)">
	<stop  offset="0" style="stop-color:#689CC5"/>
	<stop  offset="1" style="stop-color:#5E6FA3"/>
</linearGradient>
<path style="fill:url(#SVGID_00000124873747081984687140000008359279193532441494_);" d="M93,97.1L93,97.1L93,97.1
	c2.2-0.3,3.9-1.8,5.3-4.6l0,0l0,0c1.4-2.9,2.7-7.6,4-14.1l0,0l6.2-32.3h13.9l-6.2,32.3l0,0c-1.6,8.4-3.7,14.2-6.3,17.5l0,0l0,0
	c-1.4,1.7-2.9,2.9-4.6,3.6l0,0l0,0c-1.7,0.7-3.5,1-5.4,1l0,0l0,0c-1.9,0-3.4-0.3-4.6-1l0,0l0,0C94,98.7,93.3,98,93,97.1z"/>
</svg>
