<?xml version="1.0" encoding="utf-8"?>
<!-- Generator: Adobe Illustrator 26.0.0, SVG Export Plug-In . SVG Version: 6.00 Build 0)  -->
<svg version="1.1" id="Layer_1" xmlns="http://www.w3.org/2000/svg" xmlns:xlink="http://www.w3.org/1999/xlink" x="0px" y="0px"
	 viewBox="0 0 22.9 22.9" style="enable-background:new 0 0 22.9 22.9;" xml:space="preserve">
<style type="text/css">
	.st0{opacity:0.4;fill:#637381;enable-background:new    ;}
	.st1{fill:#637381;}
</style>
<g>
	<path class="st0" d="M18.6,13.6c0.4-1,0.7-2.1,0.7-3.3c0-4.9-4-8.9-8.9-8.9c-4.9,0-8.9,4-8.9,8.9c0,4.9,4,8.9,8.9,8.9
		c1.1,0,2.2-0.2,3.2-0.6c0.5,1.6,2,2.8,3.8,2.8c2.2,0,4-1.8,4-4C21.3,15.6,20.2,14.2,18.6,13.6z"/>
	<g id="_x23_000000ff">
		<path class="st1" d="M6.9,1.7c1.6-0.6,3.3-0.9,5-0.6c1.7,0.3,3.3,1,4.6,2.1c1.2,1,2.1,2.3,2.7,3.7c0.8,2,0.9,4.3,0.2,6.4
			c0.6,0.3,1.2,0.8,1.6,1.3c0.6,0.8,0.9,1.8,0.9,2.8c0,1.3-0.6,2.6-1.7,3.4c-0.7,0.6-1.6,0.9-2.5,1c-0.9,0.1-1.9-0.1-2.7-0.6
			c-0.8-0.4-1.4-1.1-1.8-1.9c-1.2,0.4-2.4,0.5-3.7,0.4c-1.4-0.1-2.8-0.6-4.1-1.3c-1.4-0.8-2.5-2-3.3-3.3C1.4,13.7,1,12,1,10.3
			c0-1.8,0.6-3.6,1.6-5.1C3.7,3.6,5.2,2.4,6.9,1.7 M9.3,1.8C7.6,2,6,2.7,4.7,3.8C3.3,5,2.4,6.6,1.9,8.4c-0.4,1.6-0.3,3.3,0.2,4.9
			c0.5,1.6,1.6,3,2.9,4c1.1,0.9,2.4,1.5,3.8,1.7c1.4,0.2,2.8,0.2,4.2-0.3c-0.1-0.2-0.1-0.5-0.2-0.7c-1.5,0.5-3.2,0.5-4.8,0.1
			c-1.5-0.4-2.8-1.3-3.8-2.4c-1-1.2-1.7-2.7-1.9-4.2C2.3,9.8,2.5,8.2,3.3,6.8c0.8-1.6,2.2-2.9,3.8-3.7c1.4-0.7,3.1-0.9,4.6-0.6
			c1.4,0.2,2.8,0.9,3.9,1.9c1.2,1,2,2.4,2.4,3.8c0.4,1.5,0.4,3.2-0.1,4.7c0.2,0,0.5,0.1,0.7,0.2c0.4-1.2,0.5-2.5,0.3-3.7
			c-0.2-1.4-0.7-2.8-1.5-4c-0.9-1.3-2.1-2.3-3.6-2.9C12.5,1.8,10.8,1.6,9.3,1.8 M10.8,3.1c0,0.2,0,0.4-0.1,0.6
			c-0.1,0.2-0.4,0.2-0.5,0c-0.1-0.2-0.1-0.4-0.1-0.6C8.4,3.2,6.7,3.9,5.5,5c0.1,0.1,0.3,0.3,0.4,0.4c0.1,0.2-0.2,0.5-0.4,0.4
			C5.3,5.8,5.1,5.6,5,5.5c-1.1,1.2-1.8,2.9-1.9,4.6c0.2,0,0.4,0,0.6,0.1c0.2,0.1,0.2,0.4,0,0.5c-0.2,0.1-0.4,0.1-0.6,0.1
			c0.1,1.7,0.8,3.3,1.9,4.6C5.1,15.2,5.2,15,5.4,15c0.2,0,0.4,0.2,0.4,0.4c0,0.2-0.2,0.3-0.3,0.4c1.2,1.1,2.9,1.8,4.6,1.9
			c0-0.2,0-0.4,0.1-0.6c0.1-0.2,0.4-0.2,0.5,0c0.1,0.2,0.1,0.4,0.1,0.6c0.7,0,1.4-0.2,2.1-0.4c0-1.2,0.5-2.3,1.3-3.1
			c0.8-0.8,2-1.3,3.2-1.4c0.2-0.7,0.4-1.4,0.4-2.1c-0.2,0-0.4,0-0.6-0.1c-0.2-0.1-0.2-0.4,0-0.5c0.2-0.1,0.4-0.1,0.6-0.1
			c-0.1-1.7-0.8-3.3-1.9-4.6c-0.1,0.1-0.2,0.3-0.4,0.3c-0.2,0-0.4-0.2-0.4-0.4c0-0.2,0.2-0.3,0.3-0.4C14.1,3.9,12.4,3.2,10.8,3.1
			 M16.9,13.6c-0.8,0.1-1.6,0.5-2.2,1.1c-0.5,0.5-0.9,1.3-1,2c-0.2,0.9,0,1.8,0.4,2.6c0.4,0.7,1,1.2,1.7,1.6
			c0.8,0.4,1.6,0.5,2.4,0.3c0.6-0.1,1.2-0.4,1.7-0.8c0.6-0.5,1.1-1.3,1.3-2.1c0.2-0.8,0.1-1.6-0.3-2.4c-0.3-0.7-0.9-1.3-1.6-1.7
			C18.6,13.6,17.7,13.5,16.9,13.6z"/>
		<path class="st1" d="M10.2,6c0.1-0.1,0.4-0.1,0.5,0c0.2,0.2,0.4,0.4,0.6,0.6c0.1,0.1,0.2,0.2,0.2,0.3c0,0.2-0.1,0.4-0.3,0.4
			c-0.1,0-0.3-0.1-0.3-0.2c0,0.8,0,1.6,0,2.4c0.3,0.1,0.5,0.3,0.6,0.6c1.2,0,2.5,0,3.7,0C15,10,14.9,9.8,15,9.6
			c0-0.2,0.4-0.4,0.6-0.2c0.2,0.2,0.5,0.5,0.7,0.7c0.1,0.1,0.1,0.4,0,0.5c-0.2,0.2-0.5,0.5-0.7,0.7c-0.1,0.1-0.2,0.1-0.4,0.1
			c-0.2,0-0.3-0.2-0.3-0.4c0-0.1,0.1-0.2,0.2-0.3c-1.3,0-2.5,0-3.8,0c-0.1,0.3-0.3,0.5-0.6,0.6c-0.3,0.1-0.8,0.1-1.1-0.2
			c-0.3-0.2-0.4-0.6-0.4-1c0.1-0.4,0.3-0.7,0.7-0.8c0-0.8,0-1.6,0-2.4C10,7.2,9.8,7.3,9.6,7.3C9.4,7.2,9.3,6.9,9.5,6.7
			C9.7,6.5,9.9,6.2,10.2,6 M10.3,10.1c-0.2,0.1-0.3,0.4-0.1,0.6c0.2,0.2,0.5,0.1,0.6-0.2C10.8,10.2,10.5,10,10.3,10.1z"/>
		<path class="st1" d="M18.8,15.8c0.1-0.2,0.4-0.2,0.5,0c0.1,0.1,0.1,0.3,0,0.5c-0.8,1-1.6,2-2.3,3c-0.1,0.1-0.2,0.2-0.3,0.2
			c-0.1,0-0.3,0-0.4-0.1c-0.3-0.3-0.7-0.7-1-1c-0.1-0.1-0.1-0.4,0-0.5c0.1-0.1,0.4-0.1,0.5,0c0.3,0.3,0.5,0.5,0.8,0.8
			C17.4,17.7,18.1,16.7,18.8,15.8z"/>
	</g>
</g>
</svg>
