<svg xmlns="http://www.w3.org/2000/svg" viewBox="0 0 19.87 21.24"><defs><style>.cls-1,.cls-2{fill:#637381;}.cls-1{isolation:isolate;opacity:0.4;}</style></defs><g id="Layer_2" data-name="Layer 2"><g id="Layer_1-2" data-name="Layer 1"><circle class="cls-1" cx="16.22" cy="17.5" r="3.54"/><path class="cls-1" d="M.36.36V20.92H15.55s-4.21-1.41-2.68-4.66c0,0,1.21-2.24,3.25-2.24V4.83L11.75.46S.26.27.36.36Z"/><g id="_000000ff" data-name="#000000ff"><path class="cls-2" d="M0,.38A.35.35,0,0,1,.34,0H11.65a.32.32,0,0,1,.26.12l4.42,4.41a.3.3,0,0,1,.11.26v8.92a4,4,0,0,1,1.68.58,3.74,3.74,0,0,1,1.68,3.86,3.71,3.71,0,0,1-1,1.94,3.77,3.77,0,0,1-2.7,1.15H.34A.36.36,0,0,1,0,20.85V.38M.69.69V20.55H13.94a3.59,3.59,0,0,1-.84-.81,3.76,3.76,0,0,1,2.66-6V5.14H11.65a.34.34,0,0,1-.34-.34c0-1.37,0-2.74,0-4.11H.69M12,1.18V4.45h3.27L12,1.18m3.78,13.23a3.07,3.07,0,0,0-1.62,5.44,3.08,3.08,0,0,0,3.47.3,3.07,3.07,0,0,0,1.32-1.48,3.08,3.08,0,0,0-1.29-3.86A3,3,0,0,0,15.77,14.41Z"/><path class="cls-2" d="M3.31,5.84a.71.71,0,0,1,.2,0H4.8a.34.34,0,0,1,.34.33V7.54a.35.35,0,0,1-.34.34H3.42a.34.34,0,0,1-.33-.34q0-.69,0-1.38a.33.33,0,0,1,.22-.32m.46.67v.68h.68c0-.22,0-.45,0-.68Z"/><path class="cls-2" d="M6.05,6.53a.65.65,0,0,1,.2,0h6.43a.35.35,0,0,1,.34.34.34.34,0,0,1-.34.34H6.21A.34.34,0,0,1,5.85,7,.34.34,0,0,1,6.05,6.53Z"/><path class="cls-2" d="M3.31,8.93a.47.47,0,0,1,.2,0H4.8a.34.34,0,0,1,.34.34v1.37A.35.35,0,0,1,4.8,11H3.42a.33.33,0,0,1-.33-.33q0-.69,0-1.38a.32.32,0,0,1,.22-.32m.46.66v.69h.68q0-.34,0-.69Z"/><path class="cls-2" d="M6.05,9.61a.71.71,0,0,1,.2,0h6.43a.35.35,0,0,1,0,.69H6.21A.35.35,0,0,1,5.84,10,.34.34,0,0,1,6.05,9.61Z"/><path class="cls-2" d="M3.31,12a.71.71,0,0,1,.2,0H4.8a.35.35,0,0,1,.34.34v1.38A.34.34,0,0,1,4.8,14H3.42a.32.32,0,0,1-.33-.33q0-.69,0-1.38A.32.32,0,0,1,3.31,12m.46.67v.68h.68c0-.23,0-.46,0-.68Z"/><path class="cls-2" d="M6.05,12.7a.49.49,0,0,1,.2,0h6.43A.34.34,0,0,1,13,13a.35.35,0,0,1-.34.34H6.16A.35.35,0,0,1,5.83,13,.32.32,0,0,1,6.05,12.7Z"/><path class="cls-2" d="M3.31,15.09a.71.71,0,0,1,.2,0H4.8a.35.35,0,0,1,.34.34v1.38a.35.35,0,0,1-.34.34H3.42a.34.34,0,0,1-.33-.34q0-.69,0-1.38a.35.35,0,0,1,.22-.32m.46.67v.68h.68c0-.23,0-.45,0-.68Z"/><path class="cls-2" d="M6.05,15.78a.44.44,0,0,1,.2,0h4a.34.34,0,0,1,0,.68H6.16a.34.34,0,0,1-.11-.66Z"/><path class="cls-2" d="M17.91,15.86a.34.34,0,0,1,.5,0,.35.35,0,0,1,0,.48c-.8.79-1.59,1.59-2.38,2.38a.34.34,0,0,1-.48,0l-1.37-1.37a.34.34,0,0,1,0-.5.36.36,0,0,1,.46,0L15.76,18C16.48,17.3,17.19,16.57,17.91,15.86Z"/></g></g></g></svg>