<?xml version="1.0" encoding="utf-8"?>
<!-- Generator: Adobe Illustrator 26.0.0, SVG Export Plug-In . SVG Version: 6.00 Build 0)  -->
<svg version="1.1" id="Layer_1" xmlns="http://www.w3.org/2000/svg" xmlns:xlink="http://www.w3.org/1999/xlink" x="0px" y="0px"
	 viewBox="0 0 22.2 18.6" style="enable-background:new 0 0 22.2 18.6;" xml:space="preserve">
<style type="text/css">
	.st0{opacity:0.4;fill:#AFAFAF;enable-background:new    ;}
	.st1{opacity:0.4;fill:#515E68;enable-background:new    ;}
	.st2{opacity:0.4;fill:#637381;enable-background:new    ;}
	.st3{fill:none;}
	.st4{fill:#637381;}
</style>
<path class="st0" d="M16,5.4L9.6,3.7L9.6,3.6c-0.1,0-0.2,0-0.3,0C7.7,3.8,8.6,5.5,8.6,5.5l2.3,0.9L12.2,7l1.3,0.8l1.2-0.2l1.2-1.1
	l0.1-1C16.1,5.5,16.1,5.5,16,5.4z"/>
<path class="st1" d="M16,5.4l0.2,0.1c0-0.1,0-2.3,0-2.3L11.3,1L8.6,2l0.9,1.6l0.1,0.1L16,5.4z"/>
<path class="st2" d="M4.4,6.2c0,0,0-0.1,0-0.1L3.6,5.2L4.4,6.2z"/>
<path class="st0" d="M4.5,3.3L3.1,4.6l0.5,0.6l0.8,0.8C5,5.2,4.5,3.3,4.5,3.3z"/>
<path class="st2" d="M4.5,3.3L3.1,4.6l0.5,0.6l0.8,0.8C5,5.2,4.5,3.3,4.5,3.3z"/>
<path class="st2" d="M8.5,2c0,0-1.4-1.3-1.5-1.3c0,0,0.7,0.7,1.3,1.4C8.4,2.1,8.4,2,8.5,2z"/>
<path class="st0" d="M8.3,2.1C7.7,1.4,7,0.7,7,0.7L5.7,2.1C5.7,2.1,7.1,3.2,8.3,2.1z"/>
<path class="st2" d="M8.3,2.1C7.7,1.4,7,0.7,7,0.7L5.7,2.1C5.7,2.1,7.1,3.2,8.3,2.1z"/>
<path class="st0" d="M8.4,10l1.4,1.5l1.5-1.5C11.4,10,9.9,8.9,8.4,10z"/>
<path class="st2" d="M8.4,10l1.4,1.5l1.5-1.5C11.4,10,9.9,8.9,8.4,10z"/>
<path class="st3" d="M8.4,10l1.4,1.5l1.5-1.5C11.4,10,9.9,8.9,8.4,10z"/>
<path class="st0" d="M12.7,8.7c-0.5-0.3-0.8-1.6-0.8-1.6L13,7.5l-0.7-0.8l-3-1L8.2,4.5L9,3.6l0.5-0.3c0,0-0.6-0.6-1.2-1.2
	c-1.2,1.1-2.7,0-2.7,0L7,0.7L3,4.6l0.6,0.6L3.1,4.6l1.3-1.3c0,0,0.5,1.8,0,2.7l5.4,5.4L8.4,10c1.5-1.1,2.9,0,2.9,0l-1.5,1.5l3.8-3.2
	L13.4,8L12.7,8.7z"/>
<polygon class="st2" points="13.6,7.8 13,7.5 13.4,8 "/>
<path class="st0" d="M12.7,8.7L13.4,8L13,7.5l-1.1-0.4C11.9,7.1,12.2,8.5,12.7,8.7z"/>
<path class="st2" d="M12.7,8.7L13.4,8L13,7.5l-1.1-0.4C11.9,7.1,12.2,8.5,12.7,8.7z"/>
<polygon class="st0" points="9.4,12.6 7.7,11.9 5.8,12.7 5.6,14.1 5.5,14.9 11.7,15.8 12.6,15.9 13.3,15 13.3,14.1 "/>
<path class="st1" d="M16.3,14.1c0,0-2.1,0.7-3,0.9l-0.6,1l-1-0.3l-6.2-0.9l0.3,1.6L7.1,17l2.3,1l1.3,0.2l2.6-0.7l3.7-1.2
	C17,16.3,19.3,13.9,16.3,14.1z"/>
<rect x="2.1" y="13.3" class="st2" width="1.8" height="4.2"/>
<rect x="17.7" y="2" class="st2" width="1.8" height="4.2"/>
<rect x="4.5" y="13.3" class="st0" width="0.8" height="3.6"/>
<rect x="16.4" y="2.6" class="st0" width="0.8" height="3.6"/>
<g id="_x23_000000ff">
	<path class="st4" d="M7.3,0.1L7.3,0.1c0.2,0,0.3,0.1,0.3,0.1C8,0.6,8.4,1,8.8,1.4C9.4,1.2,9.9,1,10.5,0.8c0.7-0.2,1.5-0.2,2.1,0.1
		c0.7,0.3,1.4,0.7,2.1,1.1c0.3,0.1,0.5,0.3,0.8,0.4c0.2,0.1,0.4,0.1,0.5,0.1c0-0.1,0-0.2,0.1-0.3C16.2,2,16.4,2,16.5,2
		c0.3,0,0.7,0,1,0c0-0.1,0-0.3,0-0.4c0-0.2,0.2-0.3,0.4-0.3c0.7,0,1.4,0,2.1,0c0.2,0,0.3,0.2,0.4,0.3v4.6c0,0.1-0.1,0.2-0.2,0.3
		c-0.1,0.1-0.2,0.1-0.4,0.1c-1.1,0-2.1,0-3.2,0c-0.3,0.4-0.7,0.8-1.2,1.1c-0.4,0.2-0.9,0.3-1.4,0.3c-1.2,1.2-2.3,2.3-3.5,3.5
		c-0.1,0.1-0.2,0.2-0.2,0.2c-0.1,0.1-0.3,0.1-0.4-0.1C7.6,9.3,5.4,7,3.1,4.7C3,4.7,2.9,4.5,3,4.4c0-0.1,0.1-0.2,0.2-0.3
		c1.2-1.2,2.5-2.5,3.7-3.7C7,0.2,7.1,0.1,7.3,0.1 M6.5,1.8c0.5,0.3,1.2,0.3,1.6,0C7.9,1.5,7.6,1.2,7.3,1C7.1,1.2,6.8,1.5,6.5,1.8
		 M10.6,1.5C10.2,1.7,9.8,1.8,9.4,2c0.4,0.4,0.9,0.8,1.3,1.3c0,0,0.1,0.1,0.1,0.1c0.8,0.3,1.7,0.5,2.5,0.8c0.2,0,0.3,0.2,0.3,0.3
		c0,0.2-0.2,0.4-0.5,0.4c-1.1-0.3-2.2-0.7-3.2-1C9.6,3.7,9.3,3.8,9.1,4C9,4.2,8.9,4.5,9,4.7C9.1,5,9.3,5.2,9.6,5.3
		c0.9,0.3,1.9,0.6,2.8,1c0.2,0,0.2,0.2,0.3,0.3c0.5,0.5,1.2,0.7,1.8,0.7c0.6-0.1,1.1-0.5,1.4-0.9C16,6.2,16.1,6.1,16.1,6
		c0-0.9,0-1.9,0-2.8c-0.3,0-0.5-0.1-0.8-0.1c-0.3-0.1-0.6-0.3-0.9-0.4c-0.6-0.4-1.3-0.7-1.9-1C11.9,1.3,11.2,1.3,10.6,1.5 M18.2,2
		c0,1.3,0,2.6,0,3.8c0.5,0,0.9,0,1.4,0c0-1.3,0-2.6,0-3.8C19.1,2,18.7,2,18.2,2 M5.2,3.1c0.3,0.4,0.4,0.8,0.4,1.3
		c0,0.5-0.1,1-0.4,1.4C6.4,7,7.6,8.2,8.8,9.5C9.2,9.2,9.5,9.1,9.9,9c0.6-0.1,1.1,0.1,1.6,0.4c0.3-0.3,0.5-0.5,0.8-0.8
		C12,8.1,11.8,7.4,12,6.8c-0.4-0.1-0.8-0.3-1.2-0.4C10.6,7.1,10,7.7,9.3,7.9C8.7,8,8,7.9,7.5,7.5C7.1,7.2,6.8,6.7,6.7,6.2
		C6.6,5.6,6.8,5.1,7.1,4.6C7.4,4.2,7.9,4,8.4,3.9C8.6,3.4,9,3.1,9.5,3.1C9.2,2.8,8.9,2.6,8.7,2.3C8.3,2.6,7.9,2.7,7.4,2.7
		c-0.5,0-1-0.1-1.4-0.4C5.7,2.6,5.4,2.8,5.2,3.1 M16.8,2.7c0,1.1,0,2.1,0,3.2c0.2,0,0.4,0,0.6,0c0-1.1,0-2.1,0-3.2
		C17.3,2.7,17,2.7,16.8,2.7 M3.8,4.5C4.1,4.7,4.4,5,4.6,5.3C5,4.8,5,4.1,4.7,3.6C4.4,3.9,4.1,4.2,3.8,4.5 M7.5,5.4
		C7.4,5.8,7.4,6.2,7.6,6.5c0.2,0.3,0.5,0.6,0.9,0.7c0.4,0.1,0.8,0,1.1-0.3c0.2-0.2,0.4-0.5,0.5-0.7C9.8,6.1,9.5,6,9.2,5.9
		c-0.5-0.2-0.9-0.7-1-1.2C7.9,4.8,7.6,5.1,7.5,5.4 M12.6,7.4c0,0.3,0.1,0.5,0.2,0.7C13,8,13.1,7.9,13.3,7.7
		C13,7.6,12.8,7.5,12.6,7.4 M9.4,10c0.3,0.3,0.5,0.5,0.8,0.8c0.3-0.3,0.5-0.5,0.8-0.8C10.5,9.7,9.8,9.7,9.4,10z"/>
	<path class="st4" d="M14.3,4.6c0.2-0.1,0.4,0,0.5,0.2c0.1,0.2,0,0.4-0.2,0.5c-0.2,0.1-0.4,0-0.5-0.2C14.1,4.9,14.2,4.6,14.3,4.6z"
		/>
	<path class="st4" d="M6.9,11.4c0.4-0.2,0.8-0.2,1.2-0.2c0.7,0.1,1.4,0.4,1.9,0.9c0,0,0.1,0.1,0.2,0.1c0.9,0.3,1.8,0.6,2.7,0.9
		c0.5,0.2,0.9,0.5,1,1c0.9-0.3,1.8-0.5,2.7-0.8c0.4-0.1,0.7-0.1,1.1,0.1c0.7,0.3,1,1.1,0.7,1.8c-0.2,0.4-0.6,0.8-1,1
		c-1.8,0.7-3.7,1.3-5.5,2c-0.3,0.1-0.7,0.2-1,0.2h-0.2c-0.4,0-0.8-0.1-1.1-0.2c-0.7-0.3-1.4-0.7-2-1c-0.3-0.2-0.6-0.4-1-0.5
		c-0.2,0-0.3-0.1-0.5-0.1c0,0.1,0,0.2-0.1,0.3c-0.1,0.1-0.2,0.2-0.3,0.2c-0.3,0-0.7,0-1,0c0,0.1,0,0.3,0,0.4c0,0.2-0.2,0.3-0.4,0.3
		c-0.7,0-1.4,0-2.1,0c-0.2,0-0.3-0.1-0.4-0.3v-4.6c0-0.2,0.2-0.3,0.4-0.3c1.1,0,2.2,0,3.3,0C5.9,12.1,6.4,11.7,6.9,11.4 M7.3,12.1
		c-0.5,0.2-0.9,0.6-1.1,1c0,1,0,1.9,0,2.9c0.5,0,1,0.2,1.4,0.4c0.8,0.5,1.6,0.9,2.4,1.2c0.5,0.2,1.1,0.2,1.6,0
		c0.3-0.1,0.6-0.2,0.8-0.3c1.6-0.6,3.1-1.1,4.7-1.7c0.3-0.1,0.5-0.3,0.7-0.5c0.2-0.4,0-0.8-0.4-1c-0.3-0.1-0.6,0-0.8,0.1
		c-0.9,0.2-1.7,0.5-2.6,0.7c-0.1,0.6-0.7,1.1-1.3,1.1c-0.3,0-0.6-0.1-0.9-0.2C10.8,15.6,9.9,15.3,9,15c-0.2,0-0.3-0.2-0.3-0.4
		c0-0.2,0.3-0.3,0.5-0.3c1.1,0.3,2.2,0.7,3.2,1c0.2,0.1,0.5,0,0.7-0.2c0.2-0.2,0.3-0.4,0.2-0.7c0-0.2-0.2-0.4-0.4-0.5
		c-0.2-0.1-0.4-0.2-0.7-0.3c-0.8-0.3-1.6-0.6-2.4-0.8c-0.1,0-0.2-0.1-0.2-0.2c-0.3-0.4-0.7-0.7-1.2-0.8C8,12,7.6,11.9,7.3,12.1
		 M2.6,13.3c0,1.3,0,2.5,0,3.8c0.5,0,0.9,0,1.4,0c0-1.3,0-2.5,0-3.8C3.6,13.3,3.1,13.3,2.6,13.3 M4.7,13.3c0,1,0,2.1,0,3.1
		c0.2,0,0.4,0,0.6,0c0-1,0-2.1,0-3.1C5.2,13.3,5,13.3,4.7,13.3z"/>
	<path class="st4" d="M7.6,13.9c0.3-0.1,0.5,0.2,0.5,0.4c0,0.3-0.4,0.4-0.6,0.2C7.3,14.4,7.4,14,7.6,13.9z"/>
</g>
<path class="st1" d="M5.5,14.1v0.7l0.1-0.7C5.6,14.1,5.5,14.1,5.5,14.1z"/>
<polygon class="st3" points="11.7,15.8 12.7,16 13.3,15 12.6,15.9 "/>
</svg>
