<svg xmlns="http://www.w3.org/2000/svg" viewBox="0 0 21.35 21.35"><defs><style>.cls-1,.cls-2{fill:#637381;}.cls-2{isolation:isolate;opacity:0.4;}</style></defs><g id="Layer_2" data-name="Layer 2"><g id="Layer_1-2" data-name="Layer 1"><g id="_000000ff" data-name="#000000ff"><path class="cls-1" d="M6.24,0H16.77a.79.79,0,0,1,.48.31L21,4.1c.13.14.3.27.31.48V20.12a1.27,1.27,0,0,1-1.21,1.23H6.24a1.28,1.28,0,0,1-1.11-.71A1.85,1.85,0,0,1,5,19.77V11.66A4.58,4.58,0,0,1,.15,8.22,4.32,4.32,0,0,1,0,7.15V7A4.32,4.32,0,0,1,.15,6,4.51,4.51,0,0,1,1.89,3.39,4.61,4.61,0,0,1,5,2.52c0-.42,0-.85,0-1.27A1.23,1.23,0,0,1,5.42.33,1.25,1.25,0,0,1,6.24,0M6,.92a.45.45,0,0,0-.17.37V2.68a4.59,4.59,0,0,1,0,8.82v8.39a.67.67,0,0,0,.12.5.72.72,0,0,0,.55.13H20a.49.49,0,0,0,.41-.17.85.85,0,0,0,.09-.5V5H16.89a.52.52,0,0,1-.4-.1.49.49,0,0,1-.14-.4V.83H6.5A.83.83,0,0,0,6,.92m11.17.5V4.17h2.75L17.18,1.42M1.34,5.22A3.75,3.75,0,0,0,4.8,10.83,3.7,3.7,0,0,0,7.26,9.72,3.8,3.8,0,0,0,8.32,7.51H4.67a.52.52,0,0,1-.36-.11A.52.52,0,0,1,4.17,7V3.36A3.78,3.78,0,0,0,1.34,5.22M5,3.36V6.67H8.32A3.81,3.81,0,0,0,7.2,4.4,3.75,3.75,0,0,0,5,3.36Z"/><path class="cls-1" d="M10.64,2.51c1.43,0,2.86,0,4.29,0a.62.62,0,0,1,.44.11.43.43,0,0,1,0,.6.52.52,0,0,1-.38.13H10.72A.43.43,0,0,1,10.27,3,.41.41,0,0,1,10.64,2.51Z"/><path class="cls-1" d="M10.64,4.18c1.47,0,2.94,0,4.42,0a.43.43,0,0,1,.45.42.42.42,0,0,1-.45.41H10.72a.43.43,0,0,1-.45-.33A.41.41,0,0,1,10.64,4.18Z"/><path class="cls-1" d="M2.05,6.68a.42.42,0,0,1,.45.41A2.12,2.12,0,0,0,3.57,8.9a2.17,2.17,0,0,0,.7.25c.22,0,.5,0,.65.19a.42.42,0,0,1-.29.66,2.85,2.85,0,0,1-1.88-.65A2.89,2.89,0,0,1,1.67,7.09.41.41,0,0,1,2.05,6.68Z"/><path class="cls-1" d="M10.39,6.68a.41.41,0,0,1,.4.6.42.42,0,0,1-.71,0A.41.41,0,0,1,10.39,6.68Z"/><path class="cls-1" d="M12.06,6.68c2.09,0,4.19,0,6.29,0a.44.44,0,0,1,.49.36.41.41,0,0,1-.45.47H12.13a.42.42,0,0,1-.44-.32A.42.42,0,0,1,12.06,6.68Z"/><path class="cls-1" d="M10.39,8.35a.41.41,0,1,1-.31.63A.41.41,0,0,1,10.39,8.35Z"/><path class="cls-1" d="M12.06,8.35c2.07,0,4.14,0,6.21,0a.62.62,0,0,1,.44.11.42.42,0,0,1,0,.62.59.59,0,0,1-.43.11H12.13a.42.42,0,0,1-.44-.32A.41.41,0,0,1,12.06,8.35Z"/><path class="cls-1" d="M17.2,11.78a1.24,1.24,0,0,1,1.52-.61,1.26,1.26,0,0,1,.82,1.38,1.24,1.24,0,0,1-1.1,1,1.2,1.2,0,0,1-.5,0l-2.89,3.11a1.26,1.26,0,0,1,.07,1.27,1.25,1.25,0,0,1-2.35-.66,1.43,1.43,0,0,1,.13-.49c-.44-.53-.87-1.07-1.3-1.61a1.36,1.36,0,0,1-1,0L9.05,16.8A1.27,1.27,0,0,1,9,18.05,1.25,1.25,0,1,1,7.88,16.1a1.38,1.38,0,0,1,.57.11c.51-.54,1-1.1,1.52-1.64a1.3,1.3,0,0,1,0-1,1.26,1.26,0,0,1,1.36-.75,1.25,1.25,0,0,1,1,.82,1.31,1.31,0,0,1-.06,1l1.3,1.61a1.34,1.34,0,0,1,.86-.05L17.27,13a1.24,1.24,0,0,1-.07-1.26m1.08.15a.41.41,0,1,0,.41.57.42.42,0,0,0-.41-.57M11.06,13.6a.41.41,0,1,0,.4.61.42.42,0,0,0-.4-.61M7.89,16.94a.41.41,0,0,0-.31.63.41.41,0,1,0,.31-.63m6.09,0a.41.41,0,0,0-.31.63.41.41,0,1,0,.31-.63Z"/></g><path class="cls-2" d="M16.85.55,5.87.42c-.9.26-.51.77-.51.77V3.05a4.25,4.25,0,1,0,0,8.33v7.17c-.07,3.19,2,2.36,2,2.36L19.59,21l1.28-.39V4.51Z"/></g></g></svg>