<svg xmlns="http://www.w3.org/2000/svg" viewBox="0 0 19.92 19.92"><defs><style>.cls-1,.cls-2{fill:#637381;}.cls-2{isolation:isolate;opacity:0.4;}</style></defs><g id="Layer_2" data-name="Layer 2"><g id="Layer_1-2" data-name="Layer 1"><path class="cls-1" d="M19.92,3.65a1.68,1.68,0,0,0-.58-1.25A1.65,1.65,0,0,0,18.26,2H16.6c0-.28,0-.56,0-.84a1.3,1.3,0,0,0-.76-1,1.35,1.35,0,0,0-1.13,0,1.37,1.37,0,0,0-.69.8A4.69,4.69,0,0,0,13.94,2H11.29c0-.29,0-.58,0-.87a1.36,1.36,0,0,0-1-1.08A1.33,1.33,0,0,0,8.78.73,2.81,2.81,0,0,0,8.63,2H6a6.92,6.92,0,0,0,0-.91A1.33,1.33,0,0,0,4,.16,1.33,1.33,0,0,0,3.35,1a6,6,0,0,0,0,1H1.66a1.67,1.67,0,0,0-1.21.53A1.65,1.65,0,0,0,0,3.69v13a2.48,2.48,0,0,0,.06.72,1.67,1.67,0,0,0,1.6,1.23H12.5a3.75,3.75,0,0,0,.71.61,4.32,4.32,0,0,0,6.7-3.3,5.28,5.28,0,0,0,0-.56s0,0,0-.05ZM14.61,1.33a.66.66,0,1,1,1.32,0v2a.66.66,0,0,1-.44.63.67.67,0,0,1-.88-.67C14.61,2.63,14.6,2,14.61,1.33Zm-5.31,0a.66.66,0,0,1,1.32,0v2a.66.66,0,1,1-1.32,0C9.29,2.66,9.29,2,9.3,1.32ZM4,1.33a.67.67,0,0,1,1.33-.05c0,.68,0,1.36,0,2A.67.67,0,0,1,4,3.32ZM.75,3.24a1,1,0,0,1,.91-.58H3.32A3.06,3.06,0,0,0,3.45,3.9a1.33,1.33,0,0,0,2.43-.09A3.43,3.43,0,0,0,6,2.66H8.63a3,3,0,0,0,.13,1.23,1.33,1.33,0,0,0,2.49-.28,5,5,0,0,0,0-.95h2.65a3,3,0,0,0,.13,1.23,1.33,1.33,0,0,0,1.45.73,1.3,1.3,0,0,0,1-1,5,5,0,0,0,0-.95c.57,0,1.13,0,1.7,0a1,1,0,0,1,.95.95c0,.79,0,1.58,0,2.37H.66c0-.75,0-1.5,0-2.25A1.21,1.21,0,0,1,.75,3.24ZM1.87,17.93a1.44,1.44,0,0,1-.62-.09,1,1,0,0,1-.59-.91V6.64H19.25v6.68a4.28,4.28,0,0,0-4.17-2,4.37,4.37,0,0,0-2,.81,4.29,4.29,0,0,0-1.34,5.3,4.82,4.82,0,0,0,.27.5Zm17.3-1.58a3.6,3.6,0,0,1-1,1.81,3.65,3.65,0,0,1-5.77-.75A3.67,3.67,0,0,1,13,13,3.73,3.73,0,0,1,15.13,12a3.69,3.69,0,0,1,2.3.46,3.66,3.66,0,0,1,1.74,3.91Z"/><path class="cls-1" d="M4.65,8.3c-.48,0-1,0-1.44,0A.66.66,0,0,0,2.66,9c0,.35,0,.7,0,1a.66.66,0,0,0,.66.62c.4,0,.8,0,1.2,0a.9.9,0,0,0,.37,0A.66.66,0,0,0,5.31,10c0-.35,0-.69,0-1A.66.66,0,0,0,4.65,8.3Zm0,1.66H3.32V9H4.65Z"/><path class="cls-1" d="M7.3,10.62c.4,0,.8,0,1.21,0a.94.94,0,0,0,.37,0A.67.67,0,0,0,9.29,10c0-.33,0-.67,0-1a.66.66,0,0,0-.65-.66c-.49,0-1,0-1.45,0A.66.66,0,0,0,6.64,9v1A.67.67,0,0,0,7.3,10.62ZM7.3,9H8.63v1H7.3Z"/><path class="cls-1" d="M11.28,10.62h1.34a.67.67,0,0,0,.66-.62V9.17a1.12,1.12,0,0,0-.06-.48.67.67,0,0,0-.65-.39c-.46,0-.93,0-1.4,0a.66.66,0,0,0-.54.57c0,.39,0,.77,0,1.16A.66.66,0,0,0,11.28,10.62Zm0-1.66h1.32v1H11.29Z"/><path class="cls-1" d="M15.27,10.62H16.6a.66.66,0,0,0,.66-.61c0-.35,0-.7,0-1a.67.67,0,0,0-.66-.66c-.48,0-1,0-1.45,0a.67.67,0,0,0-.54.57c0,.41,0,.82,0,1.22A.66.66,0,0,0,15.27,10.62Zm0-1.66H16.6v1H15.27Z"/><path class="cls-1" d="M4.65,11.29c-.48,0-1,0-1.45,0a.66.66,0,0,0-.54.57c0,.38,0,.77,0,1.16a.68.68,0,0,0,.66.58H4.65A.67.67,0,0,0,5.31,13c0-.35,0-.69,0-1A.67.67,0,0,0,4.65,11.29Zm0,1.66H3.32V12H4.65Z"/><path class="cls-1" d="M8.59,11.29c-.47,0-.94,0-1.4,0a.66.66,0,0,0-.55.65v1a.67.67,0,0,0,.66.62H8.63A.66.66,0,0,0,9.29,13c0-.25,0-.5,0-.75a1.3,1.3,0,0,0-.08-.59A.67.67,0,0,0,8.59,11.29Zm0,1.66H7.3V12H8.63Z"/><path class="cls-1" d="M11.59,13.14a.38.38,0,0,0-.3-.2V12h1.33a.34.34,0,0,0,.33-.33.33.33,0,0,0-.33-.33H11.24a.67.67,0,0,0-.62.66c0,.35,0,.69,0,1a.65.65,0,0,0,.74.61A.34.34,0,0,0,11.59,13.14Z"/><path class="cls-1" d="M17.53,14.21l-2.59,2.58-1.16-1.15a.33.33,0,0,0-.57.29c0,.12.13.2.21.28L14.7,17.5a.35.35,0,0,0,.49,0l2.68-2.68a.46.46,0,0,0,.21-.4A.33.33,0,0,0,17.53,14.21Z"/><path class="cls-1" d="M4.65,14.28c-.48,0-1,0-1.44,0a.68.68,0,0,0-.55.58c0,.38,0,.77,0,1.16a.68.68,0,0,0,.66.58H4.65A.67.67,0,0,0,5.31,16c0-.35,0-.7,0-1.05A.66.66,0,0,0,4.65,14.28Zm0,1.65H3.32v-1H4.65Z"/><path class="cls-1" d="M8.64,14.28c-.49,0-1,0-1.45,0a.66.66,0,0,0-.54.58c0,.38,0,.77,0,1.16a.67.67,0,0,0,.65.58H8.51a1,1,0,0,0,.34,0,.65.65,0,0,0,.44-.62c0-.34,0-.67,0-1A.66.66,0,0,0,8.64,14.28Zm0,1.65H7.3v-1H8.63Z"/><path class="cls-2" d="M.32,6.34H19.6s1.34-4.08-2.17-4.08h-1s-.07-2-1.22-1.92-.95,2-.95,2H11s.06-1.66-.89-2c0,0-1.15.26-1.15,1.92H5.62S5.75.15,4.6.34c0,0-1,.19-1,2,0,0-3.32-.83-3.39,2.3C.19,4.62.32,6.15.32,6.34Z"/><path class="cls-2" d="M.32,6.34V16.81S.21,18.6,2.64,18.38h9.94s2.17,2.13,4.68.88,2.34-4.6,2.34-4.6V6.34S.29,6.31.32,6.34Z"/></g></g></svg>